# xmcd
#
# Track frame offsets: 
#        150
#        13487
#        23055
#        38317
#        50845
#        67887
#        83152
#        97027
#        108987
#        121952
#
# Disc length: 1822 seconds
#
# Revision: 2
# Processed by: cddbd v1.4PL0 Copyright (c) Steve Scherf et al.
# Submitted via: ExactAudioCopy v0.90b4
#
DISCID=7a071c0a
DTITLE=John Anderson - Too Tough To Tame
DYEAR=1900
DGENRE=Country
TTITLE0=Too Tough To Tame
TTITLE1=Guitars That Won't Stay In Tune
TTITLE2=The Tears That I Cry
TTITLE3=Tryin' To Make A Livin' On The Road
TTITLE4=Maybe Go Down
TTITLE5=Who's Lovin' My Baby
TTITLE6=When The Darkness Falls
TTITLE7=She Worships The Quicksand That I Walk On
TTITLE8=Bamboo Annie
TTITLE9=There Was A Time When I Was Alone
EXTD=
EXTT0=
EXTT1=
EXTT2=
EXTT3=
EXTT4=
EXTT5=
EXTT6=
EXTT7=
EXTT8=
EXTT9=
PLAYORDER=
